<svg width="12" height="12" viewBox="0 0 12 12" fill="none" xmlns="http://www.w3.org/2000/svg">
<path d="M0.625 9V2.5C0.625 2.13533 0.769969 1.78569 1.02783 1.52783C1.28569 1.26997 1.63533 1.125 2 1.125H3.96484C4.19248 1.12504 4.4168 1.18156 4.61719 1.28955C4.81633 1.39688 4.98586 1.55172 5.11084 1.74023L5.51562 2.34033L5.51807 2.34375C5.57555 2.43105 5.65432 2.50262 5.74658 2.55176C5.83881 2.60084 5.94192 2.62602 6.04639 2.625H10C10.3647 2.625 10.7143 2.76997 10.9722 3.02783C11.23 3.28569 11.375 3.63533 11.375 4V9C11.375 9.36467 11.23 9.7143 10.9722 9.97217C10.7143 10.23 10.3647 10.375 10 10.375H2C1.63533 10.375 1.28569 10.23 1.02783 9.97217C0.76997 9.7143 0.625 9.36467 0.625 9ZM1.375 9C1.375 9.16576 1.4409 9.32468 1.55811 9.44189C1.67532 9.5591 1.83424 9.625 2 9.625H10C10.1658 9.625 10.3247 9.5591 10.4419 9.44189C10.5591 9.32468 10.625 9.16576 10.625 9V4C10.625 3.83424 10.5591 3.67532 10.4419 3.55811C10.3247 3.4409 10.1658 3.375 10 3.375H6.0498C5.82125 3.3766 5.59583 3.32129 5.39404 3.21387C5.19106 3.10577 5.01807 2.94842 4.8916 2.75635L4.48926 2.15967L4.48682 2.15625C4.42991 2.06983 4.35232 1.9988 4.26123 1.94971C4.17018 1.90066 4.06827 1.87502 3.96484 1.875H2C1.83424 1.875 1.67532 1.9409 1.55811 2.05811C1.4409 2.17532 1.375 2.33424 1.375 2.5V9Z" fill="#737373"/>
<path d="M5.625 8V5C5.625 4.79289 5.79289 4.625 6 4.625C6.20711 4.625 6.375 4.79289 6.375 5V8C6.375 8.20711 6.20711 8.375 6 8.375C5.79289 8.375 5.625 8.20711 5.625 8Z" fill="#737373"/>
<path d="M7.23486 6.23486C7.38131 6.08842 7.61869 6.08842 7.76514 6.23486C7.91158 6.38131 7.91158 6.61869 7.76514 6.76514L6.26514 8.26514C6.11869 8.41158 5.88131 8.41158 5.73486 8.26514L4.23486 6.76514C4.08842 6.61869 4.08842 6.38131 4.23486 6.23486C4.38131 6.08842 4.61869 6.08842 4.76514 6.23486L6 7.46973L7.23486 6.23486Z" fill="#737373"/>
</svg>
