<svg width="16" height="16" viewBox="0 0 16 16" fill="none" xmlns="http://www.w3.org/2000/svg">
<g clip-path="url(#clip0_3003_6326)">
<path d="M4.16683 7.99992C4.16683 6.09818 4.55138 4.35188 5.19613 3.06242C5.82594 1.80287 6.78841 0.833252 8.00016 0.833252C8.85727 0.833252 9.59409 1.32564 10.1623 2.03963C10.7322 2.75578 11.1764 3.74363 11.4624 4.87752C11.5299 5.14528 11.3675 5.41741 11.0998 5.48494C10.8321 5.55243 10.5606 5.38994 10.493 5.12231C10.2303 4.08094 9.83597 3.23536 9.37972 2.66203C8.92177 2.08663 8.44436 1.83325 8.00016 1.83325C7.37125 1.83325 6.66734 2.3564 6.09066 3.50968C5.52897 4.63304 5.16683 6.21978 5.16683 7.99992C5.16683 9.78006 5.52897 11.3668 6.09066 12.4902C6.66734 13.6434 7.37125 14.1666 8.00016 14.1666C8.15951 14.1666 8.31919 14.1349 8.47868 14.0702C8.73458 13.9664 9.02659 14.0897 9.13037 14.3456C9.2339 14.6014 9.11065 14.8929 8.85498 14.9967C8.58391 15.1066 8.29671 15.1666 8.00016 15.1666C6.78841 15.1666 5.82594 14.197 5.19613 12.9374C4.55138 11.648 4.16683 9.90166 4.16683 7.99992Z" fill="#F54A00"/>
<path d="M9.68028 8.91852C9.8014 8.67051 10.1008 8.5677 10.3489 8.6887L12.8912 9.92828C13.1394 10.0493 13.2426 10.3487 13.1217 10.5969L11.8814 13.1399C11.7604 13.388 11.461 13.4907 11.2128 13.3697C10.9649 13.2486 10.8621 12.9498 10.983 12.7017L12.0032 10.608L9.9101 9.58714C9.66209 9.46601 9.55928 9.16663 9.68028 8.91852Z" fill="#F54A00"/>
<path d="M0.833496 7.99992C0.833496 6.78817 1.80311 5.8257 3.06266 5.19588C4.35212 4.55114 6.09842 4.16658 8.00016 4.16658C9.66803 4.16658 11.2134 4.46217 12.4357 4.96737C13.6388 5.46463 14.6139 6.20221 14.9969 7.1451C15.1008 7.40092 14.9773 7.69288 14.7215 7.79679C14.4658 7.90054 14.1744 7.77713 14.0705 7.5214C13.8355 6.94299 13.1562 6.34693 12.0535 5.89119C10.9701 5.44343 9.55756 5.16658 8.00016 5.16658C6.22002 5.16658 4.63328 5.52872 3.50993 6.09041C2.35664 6.6671 1.8335 7.371 1.8335 7.99992C1.8335 8.62883 2.35664 9.33274 3.50993 9.90942C4.63328 10.4711 6.22002 10.8333 8.00016 10.8333C9.75725 10.8333 11.3258 10.4808 12.4468 9.93091C12.6946 9.80944 12.9944 9.91164 13.116 10.1594C13.2377 10.4073 13.1348 10.7071 12.8869 10.8287C11.6026 11.4587 9.8777 11.8333 8.00016 11.8333C6.09842 11.8333 4.35212 11.4487 3.06266 10.804C1.80311 10.1741 0.833496 9.21167 0.833496 7.99992Z" fill="#F54A00"/>
</g>
<defs>
<clipPath id="clip0_3003_6326">
<rect width="16" height="16" fill="white"/>
</clipPath>
</defs>
</svg>
