<svg width="12" height="12" viewBox="0 0 12 12" fill="none" xmlns="http://www.w3.org/2000/svg">
<path d="M10.5 2.625C10.7071 2.625 10.875 2.79289 10.875 3C10.875 3.20711 10.7071 3.375 10.5 3.375H1.5C1.29289 3.375 1.125 3.20711 1.125 3C1.125 2.79289 1.29289 2.625 1.5 2.625H10.5Z" fill="#991B1B"/>
<path d="M2.125 10V3C2.125 2.79289 2.29289 2.625 2.5 2.625C2.70711 2.625 2.875 2.79289 2.875 3V10C2.875 10.128 2.94277 10.2875 3.07764 10.4224C3.21251 10.5572 3.37196 10.625 3.5 10.625H8.5C8.62804 10.625 8.78749 10.5572 8.92236 10.4224C9.05723 10.2875 9.125 10.128 9.125 10V3C9.125 2.79289 9.29289 2.625 9.5 2.625C9.70711 2.625 9.875 2.79289 9.875 3V10C9.875 10.372 9.69277 10.7125 9.45264 10.9526C9.21251 11.1928 8.87196 11.375 8.5 11.375H3.5C3.12804 11.375 2.78749 11.1928 2.54736 10.9526C2.30723 10.7125 2.125 10.372 2.125 10Z" fill="#991B1B"/>
<path d="M7.625 3V2C7.625 1.87196 7.55723 1.71251 7.42236 1.57764C7.28749 1.44277 7.12804 1.375 7 1.375H5C4.87196 1.375 4.71251 1.44277 4.57764 1.57764C4.44277 1.71251 4.375 1.87196 4.375 2V3C4.375 3.20711 4.20711 3.375 4 3.375C3.79289 3.375 3.625 3.20711 3.625 3V2C3.625 1.62804 3.80723 1.28749 4.04736 1.04736C4.28749 0.807234 4.62804 0.625 5 0.625H7C7.37196 0.625 7.71251 0.807234 7.95264 1.04736C8.19277 1.28749 8.375 1.62804 8.375 2V3C8.375 3.20711 8.20711 3.375 8 3.375C7.79289 3.375 7.625 3.20711 7.625 3Z" fill="#991B1B"/>
<path d="M4.625 8.5V5.5C4.625 5.29289 4.79289 5.125 5 5.125C5.20711 5.125 5.375 5.29289 5.375 5.5V8.5C5.375 8.70711 5.20711 8.875 5 8.875C4.79289 8.875 4.625 8.70711 4.625 8.5Z" fill="#991B1B"/>
<path d="M6.625 8.5V5.5C6.625 5.29289 6.79289 5.125 7 5.125C7.20711 5.125 7.375 5.29289 7.375 5.5V8.5C7.375 8.70711 7.20711 8.875 7 8.875C6.79289 8.875 6.625 8.70711 6.625 8.5Z" fill="#991B1B"/>
</svg>
